# xmcd CD database file
#
# Track frame offsets:
#	183
#	13195
#	26700
#	40070
#	54748
#	73133
#	88565
#	98255
#	119650
#	137465
#	150173
#	161090
#	172598
#	187018
#
# Disc length: 2631 seconds
#
# Revision: 0
# Processed by: cddbd v1.4PL0 Copyright (c) Steve Scherf et al.
# Submitted via: CDex 1.51
#
DISCID=ab0a450e
DTITLE=P.S. Corporation and Engadiner Ländlerfründa - Dixie-Ländler
DYEAR=1900
DGENRE=Jazz
TTITLE0=Heidiland
TTITLE1=Maple leave Rag
TTITLE2=Bless Was A Cow (Gygeli Polka)
TTITLE3=Since my best girl
TTITLE4=Entertainer
TTITLE5=Aender Enschadeiner
TTITLE6=The Lama goes to Lima (S' Lama gaht nach Lima)
TTITLE7=Hello Dolly
TTITLE8=Adelheidi's Lover
TTITLE9=Ory's Creole Trombone
TTITLE10=When the Saints
TTITLE11=Donna Clara
TTITLE12=Charleston
TTITLE13=You are my Liabali (Du my's Liabali)
EXTD=
EXTT0=
EXTT1=
EXTT2=
EXTT3=
EXTT4=
EXTT5=
EXTT6=
EXTT7=
EXTT8=
EXTT9=
EXTT10=
EXTT11=
EXTT12=
EXTT13=
PLAYORDER=
